<?xml version="1.0" encoding="UTF-8" standalone="no"?>
<svg width="302px" height="262px" viewBox="0 0 302 262" version="1.1" xmlns="http://www.w3.org/2000/svg" xmlns:xlink="http://www.w3.org/1999/xlink" xmlns:sketch="http://www.bohemiancoding.com/sketch/ns">
    <!-- Generator: Sketch 3.5.2 (25235) - http://www.bohemiancoding.com/sketch -->
    <title>Telegram вектор</title>
    <desc>Created with Sketch.</desc>
    <defs></defs>
    <g id="Page-1" stroke="none" stroke-width="1" fill="none" fill-rule="evenodd" sketch:type="MSPage">
        <g id="Telegram-вектор" sketch:type="MSLayerGroup">
            <g id="Page-1" sketch:type="MSShapeGroup">
                <g id="telegram">
                    <path d="M116,173 C109.077,196.368 114.454,223.007 110,247 C117,252 145,223 162,206 C147.199,196.752 135.956,177.11 120,170 L116,173 L116,173 Z" id="Shape" fill="#A9C9DD"></path>
                    <path d="M121.344,172.039 C131.588,159.718 148.089002,151.72 160.000002,141 C179.334002,123.599 197.358994,107.053 216.999994,90 C226.696994,81.581 252.091994,62.52 252.999994,49 C243.451994,49.224 232.740994,53.971 224.999994,59 L180.000002,86.576 L105,135 C98.68,138.956 79.491,146.853 77,154 C82,171 95.33,210 95.33,210 C98.978,221.232 106,248 110,247 C114.999998,245 116.895,177.391 121.344,172.039 L121.344,172.039 Z" id="Shape" fill="#C8DAEA"></path>
                    <path d="M121.346,172.035 C147.000005,194.999998 190.919,230.785 213,247.373 C221.854,254.025 231.78,264.28 244,260.146 C259.771,254.811 300.2,20 300.2,20 C301.261,14.694 303.566,7.903 299.486,3.279 C294.708,-2.137 285.764,0.704 280,2.696 C263.122,8.528 5.657,109.025 1.7431,115.043 C-3.1261,122.53 4.5661,129.81 11,132.535 C25.451,138.657 52.000001,146.999998 77,154.45 C82.61,154.438 245.000005,43.000002 250,50 C256.000005,61.000002 125.4522,158.093894 121.346,172.035 L121.346,172.035 Z" id="Shape" fill="#FFFFFF"></path>
                </g>
            </g>
        </g>
    </g>
</svg>