<?xml version="1.0" encoding="UTF-8" standalone="no"?>
<svg width="48px" height="48px" viewBox="0 0 48 48" version="1.1" xmlns="http://www.w3.org/2000/svg" xmlns:xlink="http://www.w3.org/1999/xlink" xmlns:sketch="http://www.bohemiancoding.com/sketch/ns">
    <!-- Generator: Sketch 3.5.1 (25234) - http://www.bohemiancoding.com/sketch -->
    <title>VK</title>
    <desc>Created with Sketch.</desc>
    <defs></defs>
    <g id="Page-1" stroke="none" stroke-width="1" fill="none" fill-rule="evenodd" sketch:type="MSPage">
        <g id="VK" sketch:type="MSLayerGroup" fill="#FFFFFF">
            <path d="M7.3957012,0.00474216867 L40.5995566,0.00474216867 C44.6839518,0.00474216867 47.9952578,3.31593253 47.9952578,7.40044337 L47.9952578,40.6042988 C47.9952578,44.688694 44.6839518,48 40.5995566,48 L7.3957012,48 C3.31119036,48 0,44.688694 0,40.6042988 L0,7.40044337 C0,3.31593253 3.31119036,0.00474216867 7.3957012,0.00474216867 Z M23.5949494,33.6028916 L25.5582072,33.6028916 C25.5582072,33.6028916 26.151094,33.5375422 26.4542458,33.2113735 C26.7328771,32.9115759 26.7239711,32.3489928 26.7239711,32.3489928 C26.7239711,32.3489928 26.6855711,29.7146602 27.9080096,29.3267277 C29.1135614,28.944347 30.6612434,31.872694 32.3015711,32.9987855 C33.542053,33.850641 34.4847036,33.6641928 34.4847036,33.6641928 L38.8712096,33.6028916 C38.8712096,33.6028916 41.1657253,33.4613205 40.0776867,31.6572145 C39.9886265,31.5098602 39.4438554,30.3226988 36.8161157,27.8836048 C34.0654265,25.3306988 34.434159,25.7437301 37.7473157,21.3278458 C39.7650506,18.6385735 40.5715663,16.9968578 40.3195373,16.2937446 C40.0794217,15.6238265 38.5952386,15.8007904 38.5952386,15.8007904 L33.6564434,15.8313253 C33.6564434,15.8313253 33.2900241,15.7814747 33.0186795,15.9438651 C32.7532337,16.1026699 32.5828627,16.4737157 32.5828627,16.4737157 C32.5828627,16.4737157 31.8008675,18.5546024 30.758747,20.324588 C28.5595373,24.0588723 27.6800386,24.2565398 27.320559,24.0242892 C26.4842024,23.4837976 26.6932048,21.8534169 26.6932048,20.6948241 C26.6932048,17.0757398 27.2421398,15.5668048 25.6242506,15.176212 C25.0874602,15.0466699 24.6920096,14.9609639 23.3189783,14.9469687 C21.5566265,14.929041 20.065388,14.9524048 19.2208193,15.3661301 C18.6589301,15.6412916 18.2254265,16.2543036 18.4896,16.2895807 C18.8161157,16.3330699 19.5552,16.4890988 19.9470651,17.0223036 C20.4533205,17.7110747 20.4356241,19.257253 20.4356241,19.257253 C20.4356241,19.257253 20.7265157,23.5174554 19.756453,24.0464964 C19.0908145,24.4094458 18.1775422,23.6685108 16.2168289,20.2805205 C15.2124145,18.5451181 14.4537831,16.6266217 14.4537831,16.6266217 C14.4537831,16.6266217 14.3077012,16.2681831 14.0467663,16.0762988 C13.7303133,15.8438169 13.2881349,15.7701398 13.2881349,15.7701398 L8.5947759,15.8007904 C8.5947759,15.8007904 7.89039036,15.820453 7.63153735,16.1268434 C7.40125301,16.3995759 7.61314699,16.9629687 7.61314699,16.9629687 C7.61314699,16.9629687 11.2872867,25.5592482 15.4479036,29.8912771 C19.2632675,33.8635952 23.5949494,33.6028916 23.5949494,33.6028916 Z" id="Fill-1" sketch:type="MSShapeGroup"></path>
        </g>
    </g>
</svg>