<?xml version="1.0" encoding="UTF-8" standalone="no"?>
<svg width="435px" height="791px" viewBox="0 0 435 791" version="1.1" xmlns="http://www.w3.org/2000/svg" xmlns:xlink="http://www.w3.org/1999/xlink">
    <!-- Generator: Sketch 3.8.3 (29802) - http://www.bohemiancoding.com/sketch -->
    <title>2</title>
    <desc>Created with Sketch.</desc>
    <defs>
        <path d="M409,470.091775 C409,407 417.826693,411.415808 417.826693,411.415808 C420.683832,408.977025 423,410.134884 423,414.009171 L423,526.174379 C423,530.045437 420.267424,531.750482 417.826693,528.767742 C417.826693,528.767742 409,533.18355 409,470.091775 Z" id="path-1"></path>
        <mask id="mask-2" maskContentUnits="userSpaceOnUse" maskUnits="objectBoundingBox" x="0" y="0" width="14" height="125" fill="white">
            <use xlink:href="#path-1"></use>
        </mask>
        <rect id="path-3" x="0" y="152" width="417" height="487" rx="81"></rect>
        <mask id="mask-4" maskContentUnits="userSpaceOnUse" maskUnits="objectBoundingBox" x="0" y="0" width="417" height="487" fill="white">
            <use xlink:href="#path-3"></use>
        </mask>
        <rect id="path-5" x="20" y="171" width="377" height="445" rx="59"></rect>
        <mask id="mask-6" maskContentUnits="userSpaceOnUse" maskUnits="objectBoundingBox" x="0" y="0" width="377" height="445" fill="white">
            <use xlink:href="#path-5"></use>
        </mask>
        <path d="M18,117.5 C24.5,93.5 28.2032175,26.9373567 28.2032175,26.9373567 C29.1955531,12.0602654 42.0867424,0 57.0064307,0 L242.993569,0 C257.908809,0 271.042819,12.0395975 272.360746,26.8871903 C272.360746,26.8871903 278.436036,99.3237814 282,117.5 C285.563964,135.676219 300,156 300,156 L0,156 C0,156 11.5,141.5 18,117.5 Z" id="path-7"></path>
        <path d="M18,-0.5 C18.0537109,-0.42385349 281.957031,-0.295657468 282,-0.5 C285.563964,17.4401638 300,37.5 300,37.5 L0,37.5 C0,37.5 11.5,23.1883117 18,-0.5 Z" id="path-9"></path>
        <mask id="mask-10" maskContentUnits="userSpaceOnUse" maskUnits="objectBoundingBox" x="0" y="0" width="300" height="38.5" fill="white">
            <use xlink:href="#path-9"></use>
        </mask>
        <path d="M18,117.5 C24.5,93.5 28.2032175,26.9373567 28.2032175,26.9373567 C29.1955531,12.0602654 42.0867424,0 57.0064307,0 L242.993569,0 C257.908809,0 271.042819,12.0395975 272.360746,26.8871903 C272.360746,26.8871903 278.436036,99.3237814 282,117.5 C285.563964,135.676219 300,156 300,156 L0,156 C0,156 11.5,141.5 18,117.5 Z" id="path-11"></path>
        <mask id="mask-12" maskContentUnits="userSpaceOnUse" maskUnits="objectBoundingBox" x="0" y="0" width="300" height="156" fill="white">
            <use xlink:href="#path-11"></use>
        </mask>
        <path d="M18,117.5 C24.5,93.5 28.2032175,26.9373567 28.2032175,26.9373567 C29.1955531,12.0602654 42.0867424,0 57.0064307,0 L242.993569,0 C257.908809,0 271.042819,12.0395975 272.360746,26.8871903 C272.360746,26.8871903 278.436036,99.3237814 282,117.5 C285.563964,135.676219 300,156 300,156 L0,156 C0,156 11.5,141.5 18,117.5 Z" id="path-13"></path>
        <path d="M18,117 C18.0537109,117.076147 281.957031,117.204343 282,117 C285.563964,134.940164 300,155 300,155 L0,155 C0,155 11.5,140.688312 18,117 Z" id="path-15"></path>
        <mask id="mask-16" maskContentUnits="userSpaceOnUse" maskUnits="objectBoundingBox" x="0" y="0" width="300" height="38" fill="white">
            <use xlink:href="#path-15"></use>
        </mask>
        <path d="M18,117.5 C24.5,93.5 28.2032175,26.9373567 28.2032175,26.9373567 C29.1955531,12.0602654 42.0867424,0 57.0064307,0 L242.993569,0 C257.908809,0 271.042819,12.0395975 272.360746,26.8871903 C272.360746,26.8871903 278.436036,99.3237814 282,117.5 C285.563964,135.676219 300,156 300,156 L0,156 C0,156 11.5,141.5 18,117.5 Z" id="path-17"></path>
        <mask id="mask-18" maskContentUnits="userSpaceOnUse" maskUnits="objectBoundingBox" x="0" y="0" width="300" height="156" fill="white">
            <use xlink:href="#path-17"></use>
        </mask>
        <path d="M0,40.5014105 C1.16450608e-15,-7.31170805 23.0569853,0.350100661 23.0569853,0.350100661 C27.4437912,0.519674854 31,4.23600344 31,8.66284282 L31,72.3399782 C31,76.7614048 27.4439058,80.8110534 23.036865,80.6502051 C23.036865,80.6502051 1.16450609e-15,88.3145291 0,40.5014105 Z" id="path-19"></path>
        <mask id="mask-20" maskContentUnits="userSpaceOnUse" maskUnits="objectBoundingBox" x="0" y="0" width="31" height="81" fill="white">
            <use xlink:href="#path-19"></use>
        </mask>
    </defs>
    <g id="Page-1" stroke="none" stroke-width="1" fill="none" fill-rule="evenodd">
        <g id="2-интервал" transform="translate(-132.000000, -106.000000)">
            <g id="2" transform="translate(132.000000, 106.000000)">
                <g id="Watch_Metal">
                    <g id="Strap" opacity="0.2">
                        <use id="button" stroke="#212C3C" mask="url(#mask-2)" stroke-width="6" stroke-linecap="square" xlink:href="#path-1"></use>
                        <use id="Outer-dial" stroke="#272E3D" mask="url(#mask-4)" stroke-width="8" stroke-linecap="square" fill="#FFFFFF" xlink:href="#path-3"></use>
                        <use id="Inner-dial" stroke="#272E3D" mask="url(#mask-6)" stroke-width="4" stroke-linecap="square" fill="#FFFFFF" xlink:href="#path-5"></use>
                        <g id="Mesh_bottom" transform="translate(59.000000, 635.000000)">
                            <mask id="mask-8" fill="white">
                                <use xlink:href="#path-7"></use>
                            </mask>
                            <g id="Mask" transform="translate(150.000000, 78.000000) rotate(-180.000000) translate(-150.000000, -78.000000) "></g>
                            <g id="metal" mask="url(#mask-8)" transform="translate(150.000000, 18.250000) rotate(-180.000000) translate(-150.000000, -18.250000) " stroke="#272E3D" stroke-width="6" fill="#FFFFFF" stroke-linecap="square">
                                <use mask="url(#mask-10)" xlink:href="#path-9"></use>
                            </g>
                            <g id="border_mesh_bottom" mask="url(#mask-8)" transform="translate(150.000000, 78.000000) rotate(-180.000000) translate(-150.000000, -78.000000) " stroke-linecap="square" stroke-width="8" stroke="#272E3D">
                                <use mask="url(#mask-12)" xlink:href="#path-11"></use>
                            </g>
                        </g>
                        <g id="Mesh_top" transform="translate(59.000000, 0.000000)">
                            <mask id="mask-14" fill="white">
                                <use xlink:href="#path-13"></use>
                            </mask>
                            <g id="Mask"></g>
                            <g id="metal" mask="url(#mask-14)" stroke="#272E3D" stroke-width="6" fill="#FFFFFF" stroke-linecap="square">
                                <use mask="url(#mask-16)" xlink:href="#path-15"></use>
                            </g>
                            <g id="border_mesh_top" mask="url(#mask-14)" stroke-linecap="square" stroke-width="8" stroke="#272E3C">
                                <use mask="url(#mask-18)" xlink:href="#path-17"></use>
                            </g>
                        </g>
                        <g id="Wheel" transform="translate(404.000000, 265.000000)" stroke-linecap="square">
                            <use id="Rectangle-1216" stroke="#212C3C" mask="url(#mask-20)" stroke-width="6" fill="#FFFFFF" xlink:href="#path-19"></use>
                            <path d="M21,68.5 L27,68.5" id="Line-Copy-3" stroke="#0E1116"></path>
                            <path d="M21,72.5 L27,72.5" id="Line-Copy-19" stroke="#0E1116"></path>
                            <path d="M21,64.5 L27,64.5" id="Line-Copy-4" stroke="#0E1116"></path>
                            <path d="M21,60.5 L27,60.5" id="Line-Copy-5" stroke="#0E1116"></path>
                            <path d="M21,56.5 L27,56.5" id="Line-Copy-6" stroke="#0E1116"></path>
                            <path d="M21,52.5 L27,52.5" id="Line-Copy-7" stroke="#0E1116"></path>
                            <path d="M21,48.5 L27,48.5" id="Line-Copy-8" stroke="#0E1116"></path>
                            <path d="M21,44.5 L27,44.5" id="Line-Copy-9" stroke="#0E1116"></path>
                            <path d="M21,40.5 L27,40.5" id="Line-Copy-10" stroke="#0E1116"></path>
                            <path d="M21,36.5 L27,36.5" id="Line-Copy-11" stroke="#0E1116"></path>
                            <path d="M21,32.5 L27,32.5" id="Line-Copy-12" stroke="#0E1116"></path>
                            <path d="M21,28.5 L27,28.5" id="Line-Copy-13" stroke="#0E1116"></path>
                            <path d="M21,24.5 L27,24.5" id="Line-Copy-14" stroke="#0E1116"></path>
                            <path d="M21,20.5 L27,20.5" id="Line-Copy-15" stroke="#0E1116"></path>
                            <path d="M21,16.5 L27,16.5" id="Line-Copy-16" stroke="#0E1116"></path>
                            <path d="M21,12.5 L27,12.5" id="Line-Copy-17" stroke="#0E1116"></path>
                            <path d="M21,8.5 L27,8.5" id="Line-Copy-18" stroke="#0E1116"></path>
                            <path d="M5.5,13.5 L5.5,64.5098038" id="Line" stroke="#272E3D"></path>
                        </g>
                    </g>
                    <g id="Screen_content" transform="translate(59.000000, 245.000000)">
                        <g id="Screen_content-[REMPLACE-HERE]">
                            <circle id="center" stroke="#272E3D" stroke-width="3" cx="148.841699" cy="150" r="6.37065637"></circle>
                            <path d="M133.026397,184.040754 C134.02764,182.244079 133.501005,179.951909 131.764968,178.780937 L88.1343865,149.351738 C86.294013,148.11039 83.8155256,148.598624 82.5802905,150.429935 L80.6069436,153.355542 C79.3705497,155.188572 79.8556503,157.673271 81.6878577,158.90911 L125.318439,188.338309 C126.589013,189.195322 128.163735,189.227952 129.423515,188.563385 L139.060654,195.063717 L142.283919,190.285031 L133.026397,184.040754 Z" id="Clock_hand_sm" fill="#272E3D" transform="translate(111.381936, 172.017528) rotate(296.000000) translate(-111.381936, -172.017528) "></path>
                            <path d="M197.362339,105.455082 C197.859829,103.817267 197.260665,101.987047 195.770765,100.982097 L101.055351,37.0957441 C99.2324893,35.8662081 96.7390277,36.3458306 95.5029409,38.1784046 L93.5020693,41.1448187 C92.2617941,42.9836023 92.7477887,45.4638587 94.5782136,46.6984959 L189.293627,110.584849 C190.823062,111.616466 192.82458,111.444886 194.159417,110.280502 L203.183175,116.367103 L206.421744,111.565727 L197.362339,105.455082 Z" id="Clock_hand_bg" fill="#272E3D" transform="translate(149.408270, 76.816381) rotate(-304.000000) translate(-149.408270, -76.816381) "></path>
                            <path d="M138.623186,49.2162162 L141.511858,49.2162162 L141.511858,25.2601615 L138.589983,25.2601615 L132.214983,29.8421928 L132.214983,32.9964897 L138.55678,28.43106 L138.623186,28.43106 L138.623186,49.2162162 Z M147.820452,32.1664115 L147.820452,32.1830131 L150.709124,32.1830131 L150.709124,32.1664115 C150.709124,29.49356 152.834124,27.4681693 155.639788,27.4681693 C158.279436,27.4681693 160.387835,29.3109428 160.387835,31.61856 C160.387835,33.6107475 159.624163,34.8890678 156.40346,38.2757865 L147.969866,47.1576225 L147.969866,49.2162162 L163.774554,49.2162162 L163.774554,46.5599662 L152.103655,46.5599662 L152.103655,46.49356 L158.163225,40.2347709 C162.164202,36.1009818 163.376116,34.1087943 163.376116,31.4359428 C163.376116,27.7669975 160.005999,24.861724 155.722796,24.861724 C151.207171,24.861724 147.820452,27.9828178 147.820452,32.1664115 L147.820452,32.1664115 Z" id="12" fill="#272E3D"></path>
                            <path d="M261.649497,149.356487 L264.65438,149.356487 C268.074302,149.356487 270.199302,151.099651 270.199302,153.921916 C270.199302,156.428752 267.924888,158.221721 264.753989,158.221721 C261.533286,158.221721 259.491294,156.528362 259.225669,154.071331 L256.353599,154.071331 C256.569419,158.039104 259.77352,160.811565 264.787192,160.811565 C269.485435,160.811565 273.237388,157.939495 273.237388,153.822307 C273.237388,150.45219 270.913169,148.210979 267.294028,147.995159 L267.294028,147.928752 C270.28231,147.397502 272.208091,145.239299 272.208091,142.234416 C272.208091,138.631877 268.970786,136.058635 264.687583,136.058635 C260.18856,136.058635 257.167075,138.665081 256.835044,142.732463 L259.707114,142.732463 C259.972739,140.225627 261.798911,138.648479 264.55477,138.648479 C267.592856,138.648479 269.203208,140.258831 269.203208,142.632854 C269.203208,145.056682 267.277427,146.833049 264.521567,146.833049 L261.649497,146.833049 L261.649497,149.356487 Z" id="3" fill="#272E3D"></path>
                            <path d="M31.570222,160.811565 C37.4305736,160.811565 40.8504954,156.096721 40.8504954,148.028362 C40.8504954,145.421916 40.4686595,143.263713 39.6717845,141.42094 C38.210847,137.984416 35.3553783,136.042034 31.7528392,136.042034 C26.8387767,136.042034 23.2694408,139.495159 23.2694408,144.226604 C23.2694408,148.775432 26.6561595,152.145549 31.2215892,152.145549 C34.2762767,152.145549 36.8993236,150.601604 37.9120189,148.227581 L37.945222,148.227581 L37.9618236,148.227581 C37.8788158,154.585979 35.5878001,158.20512 31.6034251,158.20512 C29.2294017,158.20512 27.2870189,156.777385 26.6561595,154.602581 L23.6180736,154.602581 C24.3485423,158.354534 27.4862376,160.811565 31.570222,160.811565 L31.570222,160.811565 Z M31.7362376,149.522502 C28.5985423,149.522502 26.2909251,147.248088 26.2909251,144.126995 C26.2909251,141.122112 28.7147533,138.731487 31.7860423,138.731487 C34.8739329,138.731487 37.2645579,141.138713 37.2645579,144.210002 C37.2645579,147.26469 34.9071361,149.522502 31.7362376,149.522502 L31.7362376,149.522502 Z" id="9" fill="#272E3D"></path>
                            <path d="M150.287935,270.866777 C155.201998,270.866777 158.771334,267.413652 158.771334,262.682206 C158.771334,258.133378 155.384615,254.763261 150.819185,254.763261 C147.847505,254.763261 145.207857,256.307206 144.128755,258.648027 L144.078951,258.648027 C144.17856,252.273027 146.452974,248.720292 150.453951,248.720292 C152.827974,248.720292 154.753755,250.114823 155.401216,252.289628 L158.439302,252.289628 C157.67563,248.521073 154.554537,246.080644 150.487154,246.080644 C144.626802,246.080644 141.190279,250.812089 141.190279,258.880448 C141.190279,261.470292 141.572115,263.628495 142.36899,265.471269 C143.846529,268.924394 146.701998,270.866777 150.287935,270.866777 L150.287935,270.866777 Z M150.254732,268.210527 C147.183443,268.210527 144.792818,265.770097 144.792818,262.698808 C144.792818,259.64412 147.133638,257.386308 150.304537,257.386308 C153.475435,257.386308 155.733248,259.64412 155.733248,262.781816 C155.733248,265.8033 153.309419,268.210527 150.254732,268.210527 L150.254732,268.210527 Z" id="6" fill="#272E3D"></path>
                            <path d="M149.420849,1.15830116 L149.420849,6.94980695 M165.077796,2.43767776 L164.472419,8.19745707 M180.71549,4.87402899 L179.511368,10.5389765 M195.169276,8.46604285 L193.379602,13.9740922 M209.591385,14.3707374 L207.235767,19.6615412 M223.976091,21.4285714 L221.080338,26.4441626 M236.001479,29.6383613 L232.597317,34.3237879 M249.137604,38.998993 L245.26233,43.3029205 M259.905237,50.6677353 L255.60131,54.5430091 M269.458923,62.3270467 L264.773496,65.7312084 M277.795514,75.1343924 L272.779923,78.0301453 M284.912506,89.0890488 L279.621703,91.4446664 M290.808069,103.032112 L285.30002,104.821786 M294.32276,118.121406 L288.657813,119.325528 M296.614445,134.356589 L290.854666,134.961966 M297.683398,149.420849 L291.891892,149.420849 M296.614445,165.077796 L290.854666,164.472419 M294.32276,180.71549 L288.657813,179.511368 M290.808069,195.169276 L285.30002,193.379602 M284.912506,209.591385 L279.621703,207.235767 M277.795514,223.976091 L272.779923,221.080338 M269.458923,236.001479 L264.773496,232.597317 M259.905237,249.137604 L255.60131,245.26233 M249.137604,259.905237 L245.26233,255.60131 M236.001479,269.458923 L232.597317,264.773496 M223.976091,277.795514 L221.080338,272.779923 M209.591385,284.912506 L207.235767,279.621703 M195.169276,290.808069 L193.379602,285.30002 M180.71549,294.32276 L179.511368,288.657813 M165.077796,296.614445 L164.472419,290.854666 M149.420849,297.683398 L149.420849,291.891892 M134.356589,296.614445 L134.961966,290.854666 M118.121406,294.32276 L119.325528,288.657813 M103.032112,290.808069 L104.821786,285.30002 M89.0890488,284.912506 L91.4446664,279.621703 M75.1343924,277.795514 L78.0301453,272.779923 M62.3270467,269.458923 L65.7312084,264.773496 M50.6677353,259.905237 L54.5430091,255.60131 M38.998993,249.137604 L43.3029205,245.26233 M29.6383613,236.001479 L34.3237879,232.597317 M21.4285714,223.976091 L26.4441626,221.080338 M14.3707374,209.591385 L19.6615412,207.235767 M8.46604285,195.169276 L13.9740922,193.379602 M4.87402899,180.71549 L10.5389765,179.511368 M2.43767776,165.077796 L8.19745707,164.472419 M1.15830116,149.420849 L6.94980695,149.420849 M2.43767776,134.356589 L8.19745707,134.961966 M4.87402899,118.121406 L10.5389765,119.325528 M8.46604285,103.032112 L13.9740922,104.821786 M14.3707374,89.0890488 L19.6615412,91.4446664 M21.4285714,75.1343924 L26.4441626,78.0301453 M29.6383613,62.3270467 L34.3237879,65.7312084 M38.998993,50.6677353 L43.3029205,54.5430091 M50.6677353,38.998993 L54.5430091,43.3029205 M62.3270467,29.6383613 L65.7312084,34.3237879 M75.1343924,21.4285714 L78.0301453,26.4441626 M89.0890488,14.3707374 L91.4446664,19.6615412 M103.032112,8.46604285 L104.821786,13.9740922 M118.121406,4.87402899 L119.325528,10.5389765 M134.356589,2.43767776 L134.961966,8.19745707" id="Hours" stroke-opacity="0.5" stroke="#272E3D" stroke-width="2" stroke-linecap="square"></path>
                            <path d="M148.262548,0 L152.895753,0 L152.895753,12.7413127 L148.262548,12.7413127 L148.262548,0 Z M222.972973,18.5328185 L226.985446,20.8494208 L220.61479,31.8837214 L216.602317,29.567119 L222.972973,18.5328185 Z M278.601868,72.972973 L280.91847,76.9854459 L269.88417,83.3561023 L267.567568,79.3436293 L278.601868,72.972973 Z M300,147.104247 L300,151.737452 L287.258687,151.737452 L287.258687,147.104247 L300,147.104247 Z M280.91847,222.972973 L278.601868,226.985446 L267.567568,220.61479 L269.88417,216.602317 L280.91847,222.972973 Z M226.985446,278.601868 L222.972973,280.91847 L216.602317,269.88417 L220.61479,267.567568 L226.985446,278.601868 Z M152.895753,300 L148.262548,300 L148.262548,287.258687 L152.895753,287.258687 L152.895753,300 Z M76.9854459,280.91847 L72.972973,278.601868 L79.3436293,267.567568 L83.3561023,269.88417 L76.9854459,280.91847 Z M20.8494208,226.985446 L18.5328185,222.972973 L29.567119,216.602317 L31.8837214,220.61479 L20.8494208,226.985446 Z M2.66453526e-15,151.737452 L1.81342938e-15,147.104247 L12.7413127,147.104247 L12.7413127,151.737452 L2.66453526e-15,151.737452 Z M18.5328185,76.9854459 L20.8494208,72.972973 L31.8837214,79.3436293 L29.567119,83.3561023 L18.5328185,76.9854459 Z M72.972973,20.8494208 L76.9854459,18.5328185 L83.3561023,29.567119 L79.3436293,31.8837214 L72.972973,20.8494208 Z" id="Seconds" fill="#272E3D"></path>
                        </g>
                    </g>
                </g>
                <g id="Segments-circle" transform="translate(59.000000, 245.000000)">
                    <path d="M150,0 C203.59,0 253.11,28.59 279.9,75 C306.69,121.41 306.69,178.59 279.9,225 C253.11,271.41 203.59,300 150,300 C96.41,300 46.89,271.41 20.1,225 C-6.69,178.59 -6.69,121.41 20.1,75 C46.89,28.59 96.41,0 150,0 L150,150 L150,150 L150,150 L150,150 L150,150 L150,150 L150,150 L150,0 Z" id="Base-plate" fill-opacity="0.002" fill="#455A64"></path>
                    <path d="M20.1,225 C-6.69,178.59 -6.69,121.41 20.1,75 L150,150 L150,150 L20.1,225 Z" id="Segment-5" fill-opacity="0.38" fill="#FF673B"></path>
                </g>
            </g>
        </g>
    </g>
</svg>