<?xml version="1.0" encoding="UTF-8" standalone="no"?>
<svg width="406px" height="100px" viewBox="0 0 406 100" version="1.1" xmlns="http://www.w3.org/2000/svg" xmlns:xlink="http://www.w3.org/1999/xlink" xmlns:sketch="http://www.bohemiancoding.com/sketch/ns">
    <!-- Generator: Sketch 3.4.4 (17249) - http://www.bohemiancoding.com/sketch -->
    <title>MasterCard + VISA</title>
    <desc>Created with Sketch.</desc>
    <defs></defs>
    <g id="Page-1" stroke="none" stroke-width="1" fill="none" fill-rule="evenodd" sketch:type="MSPage">
        <g id="MasterCard-+-VISA" sketch:type="MSLayerGroup">
            <g id="MasterCard" sketch:type="MSShapeGroup">
                <path d="M82.68,86.718 C91.347,94.705 102.987,99.548 115.647,99.548 C142.836,99.548 164.843,77.372 164.843,50.098 C164.843,22.739 142.836,0.563 115.647,0.563 C102.987,0.563 91.347,5.406 82.68,13.392 C72.739,22.484 66.452,35.569 66.452,50.098 C66.452,64.627 72.739,77.712 82.68,86.718" id="Fill-2" fill="#F1AB3D"></path>
                <path d="M158.3,77.627 C158.3,76.777 158.98,76.097 159.829,76.097 C160.764,76.097 161.444,76.777 161.444,77.627 C161.444,78.561 160.764,79.241 159.829,79.241 C158.98,79.241 158.3,78.561 158.3,77.627 L158.3,77.627 Z M159.829,78.901 C160.509,78.901 161.104,78.307 161.104,77.627 C161.104,76.947 160.509,76.437 159.829,76.437 C159.235,76.437 158.64,76.947 158.64,77.627 C158.64,78.307 159.235,78.901 159.829,78.901 L159.829,78.901 Z M159.66,78.391 L159.32,78.391 L159.32,76.947 L159.914,76.947 C160,76.947 160.169,76.947 160.254,77.032 C160.424,77.117 160.424,77.202 160.424,77.372 C160.424,77.542 160.339,77.712 160.169,77.712 L160.509,78.391 L160.084,78.391 L159.914,77.797 L159.66,77.797 L159.66,78.391 L159.66,77.542 L159.829,77.542 L160,77.542 C160.084,77.542 160.084,77.457 160.084,77.372 C160.084,77.287 160.084,77.287 160,77.202 L159.829,77.202 L159.66,77.202 L159.66,78.391 L159.66,78.391 Z" id="Fill-3" fill="#1E96C8"></path>
                <path d="M98.569,44.83 C98.399,43.046 98.059,41.346 97.719,39.562 L67.641,39.562 C67.981,37.778 68.491,36.078 69.001,34.379 L96.275,34.379 C95.68,32.595 95,30.81 94.236,29.111 L71.125,29.111 C71.974,27.327 72.909,25.543 73.929,23.843 L91.347,23.843 C90.242,22.059 88.968,20.275 87.608,18.66 L77.667,18.66 C79.197,16.791 80.896,15.007 82.68,13.392 C73.929,5.491 62.373,0.563 49.628,0.563 C22.524,0.563 0.433,22.739 0.433,50.098 C0.433,77.372 22.524,99.548 49.628,99.548 C62.373,99.548 73.929,94.705 82.68,86.718 C84.464,85.104 86.079,83.404 87.608,81.535 L77.667,81.535 C76.308,79.836 75.118,78.137 73.929,76.267 L91.347,76.267 C92.451,74.568 93.386,72.869 94.236,70.999 L71.125,70.999 C70.36,69.3 69.596,67.601 69.001,65.817 L96.275,65.817 C96.87,64.117 97.294,62.333 97.719,60.549 C98.059,58.849 98.399,57.065 98.569,55.281 C98.739,53.581 98.824,51.882 98.824,50.098 C98.824,48.314 98.739,46.529 98.569,44.83" id="Fill-4" fill="#D82332"></path>
                <path d="M158.3,61.568 C158.3,60.633 158.98,59.954 159.829,59.954 C160.764,59.954 161.444,60.633 161.444,61.568 C161.444,62.418 160.764,63.183 159.829,63.183 C158.98,63.183 158.3,62.418 158.3,61.568 L158.3,61.568 Z M159.829,62.758 C160.509,62.758 161.104,62.248 161.104,61.568 C161.104,60.889 160.509,60.379 159.829,60.379 C159.235,60.379 158.64,60.889 158.64,61.568 C158.64,62.248 159.235,62.758 159.829,62.758 L159.829,62.758 Z M159.66,62.248 L159.32,62.248 L159.32,60.889 L159.914,60.889 L160.254,60.889 C160.424,60.973 160.424,61.143 160.424,61.313 C160.424,61.398 160.339,61.568 160.169,61.653 L160.509,62.248 L160.084,62.248 L159.914,61.738 L159.66,61.738 L159.66,62.248 L159.66,61.483 L159.829,61.483 C159.914,61.483 160,61.483 160,61.398 C160.084,61.398 160.084,61.313 160.084,61.228 C160.084,61.228 160.084,61.143 160,61.143 C160,61.058 159.914,61.143 159.829,61.143 L159.66,61.143 L159.66,62.248 L159.66,62.248 Z" id="Fill-5" fill="#FFFFFF"></path>
                <path d="M65.942,64.372 C64.328,64.797 63.138,65.052 61.949,65.052 C59.4,65.052 57.87,63.437 57.87,60.549 C57.87,59.954 57.955,59.359 58.04,58.679 L58.38,56.725 L58.635,55.111 L60.929,41.176 L66.027,41.176 L65.432,44.235 L68.661,44.235 L67.896,49.333 L64.668,49.333 L63.308,57.66 C63.223,58.085 63.223,58.339 63.223,58.509 C63.223,59.614 63.733,60.039 65.007,60.039 C65.602,60.039 66.112,59.954 66.622,59.869 L65.942,64.372" id="Fill-6" fill="#0B2D5A"></path>
                <path d="M82.425,64.202 C80.556,64.712 78.857,64.967 76.987,64.967 C71.21,64.967 67.896,61.908 67.896,55.875 C67.896,48.823 71.805,43.725 77.242,43.725 C81.576,43.725 84.38,46.614 84.38,51.117 C84.38,52.647 84.21,54.091 83.785,56.13 L73.164,56.13 C73.079,56.47 73.079,56.64 73.079,56.81 C73.079,59.189 74.693,60.379 77.752,60.379 C79.706,60.379 81.406,59.954 83.275,59.104 L82.425,64.202 L82.425,64.202 Z M79.282,52.052 L79.282,51.033 C79.282,49.333 78.347,48.399 76.733,48.399 C75.033,48.399 73.844,49.673 73.334,52.052 L79.282,52.052 L79.282,52.052 Z" id="Fill-7" fill="#0B2D5A"></path>
                <path d="M25.158,64.627 L19.89,64.627 L22.949,45.34 L16.067,64.627 L12.413,64.627 L11.988,45.425 L8.76,64.627 L3.577,64.627 L7.74,39.562 L15.472,39.562 L15.642,55.026 L20.825,39.562 L29.321,39.562 L25.158,64.627" id="Fill-8" fill="#0B2D5A"></path>
                <path d="M37.988,55.536 C37.478,55.451 37.308,55.451 36.969,55.451 C33.91,55.451 32.38,56.64 32.38,58.509 C32.38,59.784 33.145,60.633 34.335,60.633 C36.883,60.633 37.903,58.509 37.988,55.536 L37.988,55.536 Z M42.236,64.627 L37.648,64.627 L37.733,62.503 C36.544,64.117 34.929,64.967 32.126,64.967 C29.576,64.967 27.367,62.673 27.367,59.359 C27.367,58.424 27.537,57.575 27.792,56.725 C28.642,53.581 31.786,51.627 36.629,51.542 C37.223,51.542 38.158,51.542 39.008,51.627 C39.178,50.947 39.178,50.693 39.178,50.268 C39.178,48.908 38.073,48.483 35.609,48.483 C34.08,48.483 32.38,48.738 31.191,49.163 L30.426,49.333 L30.086,49.418 L30.851,44.83 C33.315,44.065 35.099,43.725 37.054,43.725 C41.642,43.725 44.106,45.849 44.106,49.758 C44.106,50.777 44.191,51.542 43.851,53.751 L42.661,61.058 L42.491,62.333 L42.406,63.352 L42.321,64.032 L42.236,64.627 L42.236,64.627 Z" id="Fill-9" fill="#0B2D5A"></path>
                <path d="M108.085,44.405 C109.615,44.405 110.974,44.83 112.843,45.765 L113.778,40.327 C113.268,40.072 113.098,40.072 112.418,39.817 L110.294,39.222 C109.615,39.052 108.765,38.967 107.83,38.967 C105.196,38.967 103.667,39.052 102.053,39.987 C101.203,40.581 100.098,41.346 98.909,42.706 L98.229,42.536 L92.791,46.359 L93.046,44.235 L87.438,44.235 L84.125,64.627 L89.478,64.627 L91.432,53.666 C91.432,53.666 92.196,52.137 92.536,51.627 C93.556,50.353 94.406,50.353 95.51,50.353 L95.935,50.353 C95.765,51.542 95.68,52.817 95.68,54.261 C95.68,60.889 99.419,65.052 105.196,65.052 C106.641,65.052 107.915,64.882 109.869,64.372 L110.804,58.595 C109.105,59.529 107.575,59.954 106.301,59.954 C103.157,59.954 101.288,57.575 101.288,53.836 C101.288,48.314 104.092,44.405 108.085,44.405" id="Fill-10" fill="#0B2D5A"></path>
                <path d="M153.202,39.562 L152.013,46.699 C150.738,44.745 149.209,43.81 147.17,43.81 C144.366,43.81 141.732,45.425 140.117,48.483 L140.117,48.399 L136.719,46.359 L137.059,44.235 L131.366,44.235 L128.137,64.627 L133.405,64.627 L135.189,53.666 C135.189,53.666 136.549,52.137 136.889,51.627 C137.738,50.608 138.588,50.438 139.268,50.353 C138.673,52.052 138.333,54.091 138.333,56.385 C138.333,61.483 140.967,64.882 144.876,64.882 C146.83,64.882 148.359,64.202 149.804,62.588 L149.549,64.627 L154.562,64.627 L158.64,39.562 L153.202,39.562 L153.202,39.562 Z M146.66,59.784 C144.876,59.784 143.941,58.424 143.941,55.79 C143.941,51.797 145.64,48.908 148.104,48.908 C149.973,48.908 150.908,50.353 150.908,52.902 C150.908,56.98 149.209,59.784 146.66,59.784 L146.66,59.784 Z" id="Fill-11" fill="#0B2D5A"></path>
                <path d="M122.105,55.536 C121.595,55.451 121.425,55.451 121.085,55.451 C118.026,55.451 116.497,56.64 116.497,58.509 C116.497,59.784 117.262,60.633 118.451,60.633 C121,60.633 122.02,58.509 122.105,55.536 L122.105,55.536 Z M126.353,64.627 L121.68,64.627 L121.85,62.503 C120.66,64.117 119.046,64.967 116.242,64.967 C113.608,64.967 111.314,62.758 111.314,59.359 C111.314,54.516 114.967,51.542 120.745,51.542 C121.34,51.542 122.274,51.542 123.039,51.627 C123.209,50.947 123.294,50.693 123.294,50.268 C123.294,48.908 122.19,48.483 119.64,48.483 C118.196,48.483 116.412,48.738 115.222,49.163 L114.543,49.333 L114.203,49.418 L114.967,44.83 C117.431,44.065 119.216,43.725 121.17,43.725 C125.758,43.725 128.137,45.849 128.137,49.758 C128.137,50.777 128.307,51.542 127.882,53.751 L126.778,61.058 L126.608,62.333 L126.438,63.352 L126.353,64.032 L126.353,64.627 L126.353,64.627 Z" id="Fill-12" fill="#0B2D5A"></path>
                <path d="M53.367,48.568 C54.387,48.568 55.831,48.653 57.36,48.908 L58.125,44.15 C56.596,43.98 54.556,43.725 53.367,43.725 C47.419,43.725 45.465,46.954 45.465,50.693 C45.465,53.157 46.57,54.941 49.459,56.3 C51.583,57.32 51.922,57.49 51.922,58.424 C51.922,59.699 50.818,60.464 48.779,60.464 C47.164,60.464 45.635,60.209 43.936,59.614 L43.341,64.287 L43.426,64.372 L44.445,64.542 C44.785,64.627 45.21,64.712 45.805,64.797 C47.079,64.882 48.184,64.967 48.864,64.967 C54.811,64.967 57.275,62.673 57.275,58.17 C57.275,55.366 55.916,53.666 53.282,52.477 C50.988,51.457 50.733,51.287 50.733,50.353 C50.733,49.418 51.753,48.568 53.367,48.568" id="Fill-13" fill="#0B2D5A"></path>
                <path d="M115.222,38.712 L114.288,44.15 C112.418,43.215 111.059,42.791 109.53,42.791 C105.536,42.791 102.732,46.699 102.732,52.222 C102.732,56.045 104.601,58.339 107.745,58.339 C109.02,58.339 110.549,57.915 112.249,57.065 L111.314,62.758 C109.36,63.267 108.085,63.523 106.641,63.523 C100.863,63.523 97.294,59.359 97.294,52.647 C97.294,43.725 102.222,37.438 109.275,37.438 C110.209,37.438 111.059,37.523 111.739,37.693 L113.863,38.203 C114.543,38.457 114.712,38.542 115.222,38.712" id="Fill-14" fill="#FFFFFF"></path>
                <path d="M98.059,42.451 L97.549,42.451 C95.765,42.451 94.745,43.3 93.131,45.765 L93.641,42.621 L88.798,42.621 L85.484,63.013 L90.837,63.013 C92.791,50.523 93.301,48.399 95.85,48.399 L96.19,48.399 C96.7,45.934 97.379,44.15 98.229,42.536 L98.059,42.451" id="Fill-15" fill="#FFFFFF"></path>
                <path d="M67.301,62.758 C65.857,63.267 64.668,63.437 63.478,63.437 C60.759,63.437 59.23,61.908 59.23,58.934 C59.23,58.424 59.315,57.745 59.4,57.15 L59.74,55.111 L59.994,53.496 L62.288,39.562 L67.556,39.562 L66.962,42.621 L69.68,42.621 L69.001,47.634 L66.282,47.634 L64.837,56.13 C64.752,56.47 64.752,56.725 64.752,56.98 C64.752,58 65.262,58.424 66.537,58.424 C67.131,58.424 67.641,58.424 67.981,58.255 L67.301,62.758" id="Fill-16" fill="#FFFFFF"></path>
                <path d="M46.825,49.078 C46.825,51.627 48.014,53.411 50.818,54.771 C53.027,55.79 53.367,56.13 53.367,56.98 C53.367,58.255 52.432,58.849 50.308,58.849 C48.694,58.849 47.25,58.595 45.55,58.085 L44.785,62.758 L45.04,62.843 L45.975,63.013 C46.315,63.098 46.74,63.183 47.419,63.183 C48.609,63.352 49.628,63.352 50.308,63.352 C55.916,63.352 58.55,61.228 58.55,56.555 C58.55,53.751 57.445,52.137 54.811,50.862 C52.517,49.843 52.262,49.588 52.262,48.653 C52.262,47.549 53.197,47.039 54.896,47.039 C55.916,47.039 57.36,47.124 58.72,47.294 L59.484,42.621 C58.125,42.366 56.001,42.196 54.811,42.196 C48.864,42.196 46.74,45.34 46.825,49.078" id="Fill-17" fill="#FFFFFF"></path>
                <path d="M155.921,63.013 L150.908,63.013 L151.163,61.058 C149.719,62.588 148.189,63.267 146.235,63.267 C142.326,63.267 139.777,59.954 139.777,54.856 C139.777,48.059 143.771,42.281 148.444,42.281 C150.568,42.281 152.098,43.215 153.542,45.085 L154.732,37.948 L160,37.948 L155.921,63.013 L155.921,63.013 Z M148.104,58.255 C150.568,58.255 152.267,55.366 152.267,51.372 C152.267,48.738 151.333,47.379 149.464,47.379 C147.085,47.379 145.3,50.183 145.3,54.176 C145.3,56.895 146.235,58.255 148.104,58.255 L148.104,58.255 Z" id="Fill-18" fill="#FFFFFF"></path>
                <path d="M83.615,62.588 C81.746,63.183 80.046,63.437 78.092,63.437 C72.145,63.437 69.086,60.294 69.086,54.261 C69.086,47.294 72.994,42.111 78.347,42.111 C82.765,42.111 85.569,45 85.569,49.503 C85.569,51.033 85.399,52.477 84.889,54.601 L74.354,54.601 C74.269,54.856 74.269,55.026 74.269,55.196 C74.269,57.575 75.883,58.764 78.942,58.764 C80.896,58.764 82.595,58.424 84.464,57.49 L83.615,62.588 L83.615,62.588 Z M80.641,50.438 L80.641,49.418 C80.641,47.719 79.706,46.784 78.092,46.784 C76.393,46.784 75.203,48.059 74.693,50.438 L80.641,50.438 L80.641,50.438 Z" id="Fill-19" fill="#FFFFFF"></path>
                <path d="M26.518,63.013 L21.25,63.013 L24.308,43.725 L17.426,63.013 L13.773,63.013 L13.348,43.895 L10.119,63.013 L5.191,63.013 L9.355,37.948 L17.002,37.948 L17.256,53.496 L22.354,37.948 L30.681,37.948 L26.518,63.013" id="Fill-20" fill="#FFFFFF"></path>
                <path d="M39.688,53.921 C39.178,53.921 38.923,53.836 38.498,53.836 C35.524,53.836 33.995,54.941 33.995,56.98 C33.995,58.255 34.674,59.019 35.864,59.019 C38.073,59.019 39.602,56.98 39.688,53.921 L39.688,53.921 Z M43.596,63.013 L39.178,63.013 L39.263,60.889 C37.903,62.588 36.119,63.352 33.655,63.352 C30.766,63.352 28.812,61.143 28.812,57.83 C28.812,52.817 32.21,49.928 38.158,49.928 C38.753,49.928 39.517,50.013 40.367,50.098 C40.537,49.418 40.537,49.163 40.537,48.823 C40.537,47.464 39.602,46.954 37.138,46.954 C35.609,46.954 33.91,47.124 32.72,47.464 L31.955,47.719 L31.446,47.804 L32.21,43.215 C34.844,42.451 36.629,42.196 38.583,42.196 C43.171,42.196 45.635,44.235 45.635,48.143 C45.635,49.163 45.55,49.928 45.21,52.222 L44.021,59.444 L43.851,60.718 L43.766,61.738 L43.681,62.503 L43.596,63.013 L43.596,63.013 Z" id="Fill-21" fill="#FFFFFF"></path>
                <path d="M123.804,53.921 C123.209,53.921 122.954,53.836 122.614,53.836 C119.556,53.836 118.026,54.941 118.026,56.98 C118.026,58.255 118.791,59.019 119.98,59.019 C122.105,59.019 123.719,56.98 123.804,53.921 L123.804,53.921 Z M127.712,63.013 L123.294,63.013 L123.379,60.889 C122.02,62.588 120.235,63.352 117.771,63.352 C114.882,63.352 112.928,61.143 112.928,57.83 C112.928,52.817 116.327,49.928 122.274,49.928 C122.869,49.928 123.634,50.013 124.399,50.098 C124.568,49.418 124.653,49.163 124.653,48.823 C124.653,47.464 123.719,46.954 121.255,46.954 C119.725,46.954 117.941,47.124 116.752,47.464 L116.072,47.719 L115.562,47.804 L116.327,43.215 C118.961,42.451 120.745,42.196 122.699,42.196 C127.287,42.196 129.667,44.235 129.667,48.143 C129.667,49.163 129.667,49.928 129.242,52.222 L128.137,59.444 L127.967,60.718 L127.797,61.738 L127.712,62.503 L127.712,63.013 L127.712,63.013 Z" id="Fill-22" fill="#FFFFFF"></path>
                <path d="M141.987,42.451 L141.477,42.451 C139.692,42.451 138.673,43.3 137.059,45.765 L137.568,42.621 L132.725,42.621 L129.496,63.013 L134.764,63.013 C136.719,50.523 137.229,48.399 139.777,48.399 L140.117,48.399 C140.627,45.934 141.307,44.15 142.157,42.536 L141.987,42.451" id="Fill-23" fill="#FFFFFF"></path>
            </g>
            <g id="VISA" transform="translate(226.000000, 21.000000)" sketch:type="MSShapeGroup">
                <path d="M77.9025,57.2585 L63.303,57.2585 L72.4275,1.1825 L87.0285,1.1825 L77.9025,57.2585" id="Fill-1" fill="#005C9C"></path>
                <path d="M51.021,1.1825 L37.101,39.7505 L35.4555,31.445 L35.457,31.448 L30.543,6.233 C30.543,6.233 29.9505,1.1825 23.6175,1.1825 L0.609,1.1825 L0.3405,2.1305 C0.3405,2.1305 7.3785,3.5945 15.6105,8.543 L28.2945,57.2585 L43.506,57.2585 L66.7335,1.1825 L51.021,1.1825" id="Fill-2" fill="#005C9C"></path>
                <path d="M149.7885,37.4225 L157.461,16.436 L161.7765,37.4225 L149.7885,37.4225 L149.7885,37.4225 Z M165.8535,57.2585 L179.259,57.2585 L167.571,1.1825 L155.8335,1.1825 C150.4125,1.1825 149.094,5.3615 149.094,5.3615 L127.3215,57.2585 L142.5375,57.2585 L145.5825,48.9305 L164.142,48.9305 L165.8535,57.2585 L165.8535,57.2585 Z" id="Fill-3" fill="#005C9C"></path>
                <path d="M128.463,14.6675 L130.545,2.624 C130.545,2.624 124.116,0.179 117.414,0.179 C110.169,0.179 92.9655,3.347 92.9655,18.743 C92.9655,33.2315 113.157,33.4115 113.157,41.018 C113.157,48.6245 95.046,47.2655 89.07,42.467 L86.898,55.0565 C86.898,55.0565 93.4155,58.2245 103.3785,58.2245 C113.34,58.2245 128.3715,53.063 128.3715,39.026 C128.3715,24.446 107.997,23.0885 107.997,16.7495 C107.997,10.4105 122.2155,11.225 128.463,14.6675" id="Fill-4" fill="#005C9C"></path>
                <path d="M35.457,31.448 L30.543,6.233 C30.543,6.233 29.9505,1.1825 23.6175,1.1825 L0.609,1.1825 L0.3405,2.1305 C0.3405,2.1305 11.4,4.424 22.0095,13.01 C32.1495,21.218 35.457,31.448 35.457,31.448" id="Fill-5" fill="#EE9F3F"></path>
            </g>
        </g>
    </g>
</svg>