<?xml version="1.0" encoding="UTF-8" standalone="no"?>
<svg width="52px" height="52px" viewBox="0 0 52 52" version="1.1" xmlns="http://www.w3.org/2000/svg" xmlns:xlink="http://www.w3.org/1999/xlink">
    <!-- Generator: Sketch 3.8.3 (29802) - http://www.bohemiancoding.com/sketch -->
    <title>Group</title>
    <desc>Created with Sketch.</desc>
    <defs></defs>
    <g id="Icons" stroke="none" stroke-width="1" fill="none" fill-rule="evenodd">
        <g id="Group" transform="translate(2.000000, 2.000000)">
            <path d="M23.9930335,0 C10.7622515,0 0,10.7652871 0,23.9998009 C0,29.2484508 1.69266112,34.116025 4.57002579,38.0669471 L1.57960473,46.9837983 L10.8044486,44.0355392 C14.598605,46.5469749 19.1264337,48 24.0069665,48 C37.2377485,48 48,37.2343147 48,24.0001991 C48,10.7656853 37.2377485,0.000398198153 24.0069665,0.000398198153 L23.9930335,0.000398198153 L23.9930335,0 Z" id="Whatsapp" stroke="#FFFFFF" stroke-width="3" fill="#67C15E"></path>
            <path d="M17.2360069,12.2133098 C16.7706445,11.0987531 16.4179404,11.0565441 15.7129303,11.0278739 C15.4728845,11.0139369 15.2053708,11 14.9087969,11 C13.991607,11 13.0326182,11.2679874 12.4541994,11.8605062 C11.7491893,12.5800503 10,14.2588537 10,17.7016749 C10,21.1444962 12.5107276,24.4742291 12.8491006,24.940121 C13.2018047,25.4052164 17.7439644,32.5727832 24.7964537,35.4939648 C30.3115354,37.7796222 31.9480664,37.5677808 33.2032311,37.2997934 C35.0368146,36.9047809 37.3361586,35.5497126 37.9145774,33.9135163 C38.4929962,32.2765237 38.4929962,30.8796446 38.3234116,30.5833852 C38.1542251,30.2871258 37.6884646,30.1182897 36.9834546,29.765088 C36.2784445,29.4122844 32.850527,27.7191459 32.2016471,27.4933675 C31.5667001,27.2536522 30.9604153,27.3384684 30.4811199,28.0158035 C29.8039759,28.9611259 29.1411629,29.9207835 28.6049412,30.4989672 C28.181776,30.9505239 27.4903008,31.007068 26.9122801,30.7669545 C26.1364108,30.4428212 23.9644542,29.6802718 21.2841421,27.2958612 C19.2105128,25.4478236 17.8000945,23.1482293 17.3912604,22.4569573 C16.9820281,21.7517483 17.3490633,21.3420024 17.6731052,20.961325 C18.0258092,20.5237052 18.3641822,20.2135089 18.7168863,19.8041612 C19.0695904,19.3952117 19.267041,19.1833702 19.4927557,18.7035415 C19.7328014,18.2380478 19.5632169,17.7582191 19.3940304,17.4054155 C19.2248439,17.0526119 17.8144256,13.6097907 17.2360069,12.2133098 L17.2360069,12.2133098 Z" id="path" fill="#FFFFFF"></path>
        </g>
    </g>
</svg>